<svg width="32" height="32" viewBox="0 0 32 32" fill="none" xmlns="http://www.w3.org/2000/svg">
<g clip-path="url(#clip0_1810_4154)">
<path d="M7.02538 13.0001C7.02372 11.8146 7.25662 10.6405 7.71067 9.54534C8.16472 8.45021 8.83094 7.45573 9.67098 6.61918C10.511 5.78263 11.5083 5.12054 12.6053 4.67105C13.7023 4.22156 14.8774 3.99354 16.0629 4.00014C21.0129 4.03764 24.9754 8.15014 24.9754 13.1126V14.0001C24.9754 18.4751 25.9129 21.0751 26.7379 22.5001C26.8255 22.6519 26.8717 22.824 26.8719 22.9993C26.872 23.1745 26.8261 23.3467 26.7388 23.4986C26.6514 23.6505 26.5257 23.7768 26.3741 23.8648C26.2226 23.9529 26.0506 23.9995 25.8754 24.0001H6.12538C5.95015 23.9995 5.77815 23.9529 5.62662 23.8648C5.47509 23.7768 5.34935 23.6505 5.262 23.4986C5.17465 23.3467 5.12875 23.1745 5.12891 22.9993C5.12906 22.824 5.17526 22.6519 5.26288 22.5001C6.08788 21.0751 7.02538 18.4751 7.02538 14.0001V13.0001Z" stroke="black" stroke-width="2" stroke-linecap="round" stroke-linejoin="round"/>
<path d="M12 24V25C12 26.0609 12.4214 27.0783 13.1716 27.8284C13.9217 28.5786 14.9391 29 16 29C17.0609 29 18.0783 28.5786 18.8284 27.8284C19.5786 27.0783 20 26.0609 20 25V24" stroke="black" stroke-width="2" stroke-linecap="round" stroke-linejoin="round"/>
<circle cx="21.5" cy="9.68408" r="8.5" fill="#05376A"/>
<path d="M24.4238 12.2935V13.1841H18.8398V12.4048L21.6348 9.29346C21.9785 8.91064 22.2441 8.58643 22.4316 8.3208C22.623 8.05127 22.7559 7.81104 22.8301 7.6001C22.9082 7.38525 22.9473 7.1665 22.9473 6.94385C22.9473 6.6626 22.8887 6.40869 22.7715 6.18213C22.6582 5.95166 22.4902 5.76807 22.2676 5.63135C22.0449 5.49463 21.7754 5.42627 21.459 5.42627C21.0801 5.42627 20.7637 5.50049 20.5098 5.64893C20.2598 5.79346 20.0723 5.99658 19.9473 6.2583C19.8223 6.52002 19.7598 6.8208 19.7598 7.16064H18.6758C18.6758 6.68018 18.7812 6.24072 18.9922 5.84229C19.2031 5.44385 19.5156 5.12744 19.9297 4.89307C20.3438 4.65479 20.8535 4.53564 21.459 4.53564C21.998 4.53564 22.459 4.63135 22.8418 4.82275C23.2246 5.01025 23.5176 5.27588 23.7207 5.61963C23.9277 5.95947 24.0312 6.35791 24.0312 6.81494C24.0312 7.06494 23.9883 7.31885 23.9023 7.57666C23.8203 7.83057 23.7051 8.08447 23.5566 8.33838C23.4121 8.59229 23.2422 8.84229 23.0469 9.08838C22.8555 9.33447 22.6504 9.57666 22.4316 9.81494L20.1465 12.2935H24.4238Z" fill="white"/>
</g>
<defs>
<clipPath id="clip0_1810_4154">
<rect width="32" height="32" fill="white"/>
</clipPath>
</defs>
</svg>
