<svg width="106" height="46" viewBox="0 0 106 46" fill="none" xmlns="http://www.w3.org/2000/svg">
<path d="M40.4433 13.9826L39.8709 13.9145V20.4053H38.209V5.42645C38.566 5.16923 39.0245 4.96121 39.5846 4.80229C40.1447 4.64348 40.7449 4.56396 41.3849 4.56396C42.8253 4.56396 43.9086 4.99141 44.6348 5.84632C45.3611 6.7011 45.7243 7.84726 45.7243 9.28457C45.7243 10.6615 45.358 11.7999 44.6256 12.7002C43.8932 13.6005 42.7944 14.0507 41.3295 14.0507C41.0588 14.0507 40.7633 14.0279 40.4433 13.9826V13.9826ZM41.3173 5.81227C40.9849 5.81227 40.7018 5.83874 40.474 5.89168C40.2462 5.94461 40.0431 6.01655 39.8709 6.10727V12.6889L40.4278 12.757C40.5878 12.757 40.7264 12.757 40.8433 12.757C40.9633 12.757 41.0588 12.757 41.1326 12.757C42.1574 12.757 42.9083 12.4468 43.3854 11.8265C43.8624 11.2061 44.0993 10.3513 44.0993 9.26195C44.0993 8.11206 43.8777 7.24958 43.4315 6.67464C42.9853 6.09969 42.2806 5.81227 41.3173 5.81227ZM53.8304 20.4053L49.6574 13.1201L49.6204 20.4053H47.9401V5.40371C48.2971 5.16165 48.7495 4.96121 49.2972 4.80229C49.8451 4.64348 50.4452 4.56396 51.0976 4.56396C52.5133 4.56396 53.5935 4.96879 54.3383 5.77822C55.0831 6.59149 55.4554 7.72997 55.4554 9.19759C55.4554 10.5177 55.1046 11.5617 54.406 12.3334C53.7074 13.1088 52.7749 13.4946 51.6116 13.4946L55.7508 20.4053H53.8304ZM51.0607 5.78953C50.4329 5.78953 49.9528 5.90298 49.6204 6.13V12.6889C49.8666 12.7797 50.2298 12.8251 50.7098 12.8251C51.7316 12.8251 52.4979 12.5262 53.0088 11.9248C53.5197 11.3271 53.775 10.4496 53.775 9.296C53.775 6.95832 52.8703 5.78953 51.0607 5.78953V5.78953ZM61.8628 20.6549C60.6687 20.6549 59.7116 20.2124 58.9915 19.3272C58.2713 18.4421 57.9113 17.3187 57.9113 15.957V4.79099H59.6101V15.9343C59.6101 16.8875 59.8347 17.6402 60.284 18.1925C60.7334 18.7448 61.2904 19.0209 61.9552 19.0209C62.6076 19.0209 63.1585 18.7448 63.6078 18.1925C64.0571 17.6402 64.2818 16.8875 64.2818 15.9343V4.79099H65.8328V15.957C65.8328 17.3036 65.4697 18.4232 64.7434 19.3159C64.0171 20.2086 63.0569 20.6549 61.8628 20.6549V20.6549ZM72.0371 20.6322C71.2985 20.6322 70.6461 20.5566 70.0798 20.4053C69.5135 20.2539 69.0457 20.0498 68.6765 19.7925V5.42645C69.5258 4.8515 70.6214 4.56396 71.9632 4.56396C73.6866 4.56396 74.9977 5.26006 75.8963 6.65201C76.7949 8.04396 77.2442 9.97308 77.2442 12.4393C77.2442 14.9659 76.8134 16.9632 75.9517 18.4308C75.09 19.8984 73.7851 20.6322 72.0371 20.6322V20.6322ZM71.9263 5.90298C71.2985 5.90298 70.7753 6.00897 70.3567 6.22071V18.862C70.763 19.0587 71.2923 19.1571 71.9448 19.1571C73.2004 19.1571 74.1052 18.601 74.6591 17.4889C75.2131 16.3769 75.4901 14.6861 75.4901 12.4165C75.4901 8.07416 74.3021 5.90298 71.9263 5.90298ZM79.6632 20.4053V4.79099H85.5536V6.17536H81.362V11.6449H85.1289V13.0294H81.362V19.0209H85.5536V20.4053H79.6632V20.4053ZM95.451 20.4053L90.0407 9.01232C89.9299 8.77026 89.7914 8.4524 89.6251 8.05912C89.459 7.66571 89.3267 7.35557 89.2282 7.12855C89.2282 7.37061 89.2282 7.64298 89.2282 7.94555C89.2282 8.24825 89.2282 8.61891 89.2282 9.05767V20.4053H87.8249V4.79099H89.616L94.82 15.7414C95.0109 16.1386 95.1648 16.4904 95.2816 16.7929C95.3956 17.0955 95.4755 17.3036 95.5248 17.4095C95.5248 17.1826 95.5248 16.9632 95.5248 16.7513C95.5248 16.5396 95.5248 16.2974 95.5248 16.0251V15.6847V4.79099H96.9282V20.4053H95.451V20.4053ZM103.133 6.17536V20.4053H101.434V6.17536H98.9039V4.79099H105.662V6.17536H103.133ZM38.209 40.9731V25.3588H44.0993V26.7432H39.9078V32.2127H43.6746V33.5972H39.9078V39.5887H44.0993V40.9731H38.209V40.9731ZM53.9967 40.9731L48.5864 29.5801C48.4756 29.3381 48.3371 29.0202 48.1709 28.6269C48.0048 28.2335 47.8725 27.9234 47.774 27.6964C47.774 27.9384 47.774 28.2108 47.774 28.5134C47.774 28.8161 47.774 29.1867 47.774 29.6255V40.9731H46.3706V25.3588H48.1617L53.3658 36.3093C53.5567 36.7064 53.7105 37.0582 53.8274 37.3607C53.9413 37.6633 54.0213 37.8714 54.0706 37.9773C54.0706 37.7504 54.0706 37.531 54.0706 37.3191C54.0706 37.1074 54.0706 36.8652 54.0706 36.5929V36.2525V25.3588H55.4739V40.9731H53.9967V40.9731ZM58.3176 40.9731V25.3588H64.208V26.7432H60.0164V32.2127H63.7833V33.5972H60.0164V39.5887H64.208V40.9731H58.3176V40.9731ZM72.4065 40.9731L68.2334 33.6879L68.1964 40.9731H66.5162V25.9715C66.8732 25.7295 67.3256 25.529 67.8733 25.3701C68.4212 25.2113 69.0213 25.1318 69.6737 25.1318C71.0894 25.1318 72.1695 25.5366 72.9143 26.346C73.6591 27.1593 74.0315 28.2978 74.0315 29.7654C74.0315 31.0855 73.6807 32.1295 72.9821 32.9012C72.2835 33.6766 71.3509 34.0624 70.1877 34.0624L74.3269 40.9731H72.4065ZM69.6368 26.3573C69.009 26.3573 68.5289 26.4708 68.1964 26.6978V33.2567C68.4427 33.3475 68.8059 33.3929 69.2859 33.3929C70.3077 33.3929 71.074 33.094 71.5849 32.4926C72.0957 31.8949 72.3511 31.0174 72.3511 29.8638C72.3511 27.5261 71.4464 26.3573 69.6368 26.3573ZM81.3991 41.2C79.848 41.2 78.5708 40.504 77.5675 39.112C76.5643 37.7201 76.0627 35.7003 76.0627 33.0524C76.0627 30.5559 76.5704 28.6118 77.5891 27.2198C78.6047 25.8279 79.8757 25.1318 81.4053 25.1318C82.07 25.1318 82.6486 25.2037 83.1409 25.3475C83.6364 25.4911 84.0488 25.6917 84.3812 25.9489L83.8827 27.2424C83.6488 27.0609 83.3348 26.9097 82.9471 26.7885C82.5593 26.6675 82.1069 26.607 81.5899 26.607C80.3804 26.607 79.451 27.1555 78.7955 28.2524C78.1431 29.3494 77.8168 31.0099 77.8168 33.234C77.8168 35.2917 78.1493 36.8918 78.817 38.0341C79.4849 39.1764 80.3435 39.7475 81.3929 39.7475C81.79 39.7475 82.1162 39.7135 82.3747 39.6454C82.6362 39.5773 82.8394 39.4903 82.9871 39.3844V33.5291H80.8267V32.2127H84.612V40.3376C84.1935 40.6402 83.7442 40.8596 83.2641 40.9958C82.7839 41.132 82.1623 41.2 81.3991 41.2ZM91.3888 34.0511V40.9731H89.6899V34.0511L86.237 25.3588L88.0497 25.3701L90.5917 32.4434L93.2538 25.3588H94.8787L91.3888 34.0511V34.0511Z" fill="#05376A"/>
<path fill-rule="evenodd" clip-rule="evenodd" d="M15.4366 0H5.83338C2.81093 0 0.337891 2.51273 0.337891 5.58392V7.29396C0.337891 10.3652 2.81093 12.8779 5.83338 12.8779H24.2807C21.924 7.3036 18.0102 2.66709 15.4366 0V0Z" fill="#05376A"/>
<path fill-rule="evenodd" clip-rule="evenodd" d="M25.5412 16.5347H5.83338C2.81093 16.5347 0.337891 19.0473 0.337891 22.1185V23.8286C0.337891 26.8998 2.81093 29.4126 5.83338 29.4126H25.2745C26.053 26.6664 26.4814 23.6305 26.2213 20.4306C26.1136 19.1055 25.8768 17.8038 25.5412 16.5347V16.5347Z" fill="#05376A"/>
<path fill-rule="evenodd" clip-rule="evenodd" d="M24.0615 32.8838H5.83338C2.81093 32.8838 0.337891 35.3965 0.337891 38.4677V40.1778C0.337891 43.249 2.81093 45.7617 5.83338 45.7617H14.7083L17.8369 42.8641C17.8369 42.8641 21.5549 38.9138 24.0615 32.8838V32.8838Z" fill="#05376A"/>
</svg>
