<svg width="106" height="46" viewBox="0 0 106 46" fill="none" xmlns="http://www.w3.org/2000/svg">
<path d="M40.7812 13.9826L40.2087 13.9145V20.4053H38.5469V5.42645C38.9039 5.16923 39.3623 4.96121 39.9225 4.80229C40.4826 4.64348 41.0827 4.56396 41.7228 4.56396C43.1632 4.56396 44.2464 4.99141 44.9727 5.84632C45.699 6.7011 46.0622 7.84726 46.0622 9.28457C46.0622 10.6615 45.6959 11.7999 44.9634 12.7002C44.2311 13.6005 43.1323 14.0507 41.6674 14.0507C41.3967 14.0507 41.1011 14.0279 40.7812 13.9826ZM41.6552 5.81227C41.3228 5.81227 41.0397 5.83874 40.8119 5.89168C40.5841 5.94461 40.381 6.01655 40.2087 6.10727V12.6889L40.7657 12.757C40.9257 12.757 41.0642 12.757 41.1812 12.757C41.3012 12.757 41.3967 12.757 41.4705 12.757C42.4953 12.757 43.2462 12.4468 43.7233 11.8265C44.2002 11.2061 44.4372 10.3513 44.4372 9.26195C44.4372 8.11206 44.2156 7.24958 43.7694 6.67464C43.3232 6.09969 42.6184 5.81227 41.6552 5.81227ZM54.1683 20.4053L49.9953 13.1201L49.9583 20.4053H48.278V5.40371C48.635 5.16165 49.0874 4.96121 49.6351 4.80229C50.183 4.64348 50.7831 4.56396 51.4355 4.56396C52.8512 4.56396 53.9314 4.96879 54.6762 5.77822C55.4209 6.59149 55.7933 7.72997 55.7933 9.19759C55.7933 10.5177 55.4425 11.5617 54.7439 12.3334C54.0453 13.1088 53.1128 13.4946 51.9495 13.4946L56.0887 20.4053H54.1683ZM51.3986 5.78953C50.7708 5.78953 50.2907 5.90298 49.9583 6.13V12.6889C50.2045 12.7797 50.5677 12.8251 51.0477 12.8251C52.0695 12.8251 52.8358 12.5262 53.3467 11.9248C53.8575 11.3271 54.1129 10.4496 54.1129 9.296C54.1129 6.95832 53.2082 5.78953 51.3986 5.78953ZM62.2007 20.6549C61.0066 20.6549 60.0495 20.2124 59.3293 19.3272C58.6092 18.4421 58.2492 17.3187 58.2492 15.957V4.79099H59.948V15.9343C59.948 16.8875 60.1726 17.6402 60.6219 18.1925C61.0713 18.7448 61.6282 19.0209 62.2931 19.0209C62.9455 19.0209 63.4964 18.7448 63.9456 18.1925C64.395 17.6402 64.6197 16.8875 64.6197 15.9343V4.79099H66.1707V15.957C66.1707 17.3036 65.8076 18.4232 65.0813 19.3159C64.355 20.2086 63.3947 20.6549 62.2007 20.6549ZM72.375 20.6322C71.6364 20.6322 70.984 20.5566 70.4177 20.4053C69.8514 20.2539 69.3836 20.0498 69.0144 19.7925V5.42645C69.8637 4.8515 70.9593 4.56396 72.3011 4.56396C74.0245 4.56396 75.3356 5.26006 76.2342 6.65201C77.1328 8.04396 77.5821 9.97308 77.5821 12.4393C77.5821 14.9659 77.1513 16.9632 76.2896 18.4308C75.4279 19.8984 74.123 20.6322 72.375 20.6322ZM72.2642 5.90298C71.6364 5.90298 71.1132 6.00897 70.6946 6.22071V18.862C71.1008 19.0587 71.6302 19.1571 72.2827 19.1571C73.5383 19.1571 74.4431 18.601 74.997 17.4889C75.551 16.3769 75.8279 14.6861 75.8279 12.4165C75.8279 8.07416 74.64 5.90298 72.2642 5.90298ZM80.0011 20.4053V4.79099H85.8915V6.17536H81.6999V11.6449H85.4668V13.0294H81.6999V19.0209H85.8915V20.4053H80.0011ZM95.7889 20.4053L90.3785 9.01232C90.2677 8.77026 90.1292 8.4524 89.963 8.05912C89.7969 7.66571 89.6646 7.35557 89.5661 7.12855C89.5661 7.37061 89.5661 7.64298 89.5661 7.94555C89.5661 8.24825 89.5661 8.61891 89.5661 9.05767V20.4053H88.1628V4.79099H89.9538L95.1579 15.7414C95.3488 16.1386 95.5027 16.4904 95.6195 16.7929C95.7335 17.0955 95.8134 17.3036 95.8627 17.4095C95.8627 17.1826 95.8627 16.9632 95.8627 16.7513C95.8627 16.5396 95.8627 16.2974 95.8627 16.0251V15.6847V4.79099H97.266V20.4053H95.7889ZM103.47 6.17536V20.4053H101.772V6.17536H99.2418V4.79099H106V6.17536H103.47ZM38.5469 40.9731V25.3588H44.4372V26.7432H40.2456V32.2127H44.0125V33.5972H40.2456V39.5887H44.4372V40.9731H38.5469ZM54.3346 40.9731L48.9243 29.5801C48.8135 29.3381 48.675 29.0202 48.5088 28.6269C48.3427 28.2335 48.2103 27.9234 48.1119 27.6964C48.1119 27.9384 48.1119 28.2108 48.1119 28.5134C48.1119 28.8161 48.1119 29.1867 48.1119 29.6255V40.9731H46.7085V25.3588H48.4996L53.7037 36.3093C53.8946 36.7064 54.0484 37.0582 54.1653 37.3607C54.2792 37.6633 54.3592 37.8714 54.4084 37.9773C54.4084 37.7504 54.4084 37.531 54.4084 37.3191C54.4084 37.1074 54.4084 36.8652 54.4084 36.5929V36.2525V25.3588H55.8118V40.9731H54.3346ZM58.6555 40.9731V25.3588H64.5459V26.7432H60.3543V32.2127H64.1211V33.5972H60.3543V39.5887H64.5459V40.9731H58.6555ZM72.7444 40.9731L68.5713 33.6879L68.5343 40.9731H66.8541V25.9715C67.211 25.7295 67.6635 25.529 68.2112 25.3701C68.7591 25.2113 69.3592 25.1318 70.0116 25.1318C71.4273 25.1318 72.5074 25.5366 73.2522 26.346C73.997 27.1593 74.3694 28.2978 74.3694 29.7654C74.3694 31.0855 74.0186 32.1295 73.32 32.9012C72.6214 33.6766 71.6888 34.0624 70.5256 34.0624L74.6648 40.9731H72.7444ZM69.9747 26.3573C69.3469 26.3573 68.8667 26.4708 68.5343 26.6978V33.2567C68.7806 33.3475 69.1438 33.3929 69.6238 33.3929C70.6456 33.3929 71.4119 33.094 71.9228 32.4926C72.4336 31.8949 72.689 31.0174 72.689 29.8638C72.689 27.5261 71.7843 26.3573 69.9747 26.3573ZM81.737 41.2C80.1859 41.2 78.9087 40.504 77.9054 39.112C76.9022 37.7201 76.4006 35.7003 76.4006 33.0524C76.4006 30.5559 76.9083 28.6118 77.927 27.2198C78.9426 25.8279 80.2136 25.1318 81.7432 25.1318C82.4079 25.1318 82.9865 25.2037 83.4788 25.3475C83.9743 25.4911 84.3867 25.6917 84.7191 25.9489L84.2206 27.2424C83.9867 27.0609 83.6727 26.9097 83.285 26.7885C82.8972 26.6675 82.4448 26.607 81.9278 26.607C80.7183 26.607 79.7889 27.1555 79.1334 28.2524C78.481 29.3494 78.1547 31.0099 78.1547 33.234C78.1547 35.2917 78.4872 36.8918 79.1549 38.0341C79.8228 39.1764 80.6814 39.7475 81.7308 39.7475C82.1278 39.7475 82.4541 39.7135 82.7126 39.6454C82.9741 39.5773 83.1772 39.4903 83.325 39.3844V33.5291H81.1646V32.2127H84.9499V40.3376C84.5314 40.6402 84.0821 40.8596 83.602 40.9958C83.1218 41.132 82.5002 41.2 81.737 41.2ZM91.7267 34.0511V40.9731H90.0278V34.0511L86.5749 25.3588L88.3876 25.3701L90.9295 32.4434L93.5917 25.3588H95.2165L91.7267 34.0511Z" fill="white"/>
<path fill-rule="evenodd" clip-rule="evenodd" d="M15.7744 0H6.17127C3.14882 0 0.675781 2.51273 0.675781 5.58392V7.29396C0.675781 10.3652 3.14882 12.8779 6.17127 12.8779H24.6186C22.2619 7.3036 18.3481 2.66709 15.7744 0Z" fill="white"/>
<path fill-rule="evenodd" clip-rule="evenodd" d="M25.8791 16.5347H6.17127C3.14882 16.5347 0.675781 19.0473 0.675781 22.1185V23.8286C0.675781 26.8998 3.14882 29.4126 6.17127 29.4126H25.6123C26.3909 26.6664 26.8193 23.6305 26.5592 20.4306C26.4515 19.1055 26.2147 17.8038 25.8791 16.5347Z" fill="white"/>
<path fill-rule="evenodd" clip-rule="evenodd" d="M24.3994 32.8838H6.17127C3.14882 32.8838 0.675781 35.3965 0.675781 38.4677V40.1778C0.675781 43.249 3.14882 45.7617 6.17127 45.7617H15.0462L18.1747 42.8641C18.1747 42.8641 21.8928 38.9138 24.3994 32.8838Z" fill="white"/>
</svg>
