<svg width="173" height="32" viewBox="0 0 173 32" fill="none" xmlns="http://www.w3.org/2000/svg">
<path d="M10.44 5.38L10.56 4.45C10.56 3.53 10.2 2.94 9.48 2.68C8.92 2.5 8.49 2.41 8.19 2.41H8.16C7.56 2.41 7.04 2.51 6.6 2.71C6.16 2.89 5.84 3.12 5.64 3.4C5.22 3.98 4.98 4.59 4.92 5.23C4.92 5.99 5.26 6.65 5.94 7.21C6.62 7.75 7.44 8.23 8.4 8.65C9.38 9.05 10.35 9.49 11.31 9.97C12.29 10.45 13.12 11.14 13.8 12.04C14.48 12.94 14.82 14.02 14.82 15.28C14.82 17.74 14.04 19.58 12.48 20.8C10.94 22.02 9.18 22.63 7.2 22.63C5.24 22.63 3.61 22.19 2.31 21.31C1.03 20.41 0.39 19.21 0.39 17.71V17.68C0.39 16.94 0.5 16.3 0.72 15.76C0.96 15.2 1.24 14.79 1.56 14.53C2.22 13.99 2.82 13.7 3.36 13.66L3.72 13.63C4.28 13.63 4.79 13.77 5.25 14.05C5.71 14.31 5.94 14.68 5.94 15.16C5.94 15.4 5.81 15.6 5.55 15.76C5.29 15.92 5.06 16.16 4.86 16.48C4.68 16.8 4.58 17.07 4.56 17.29L4.5 17.62C4.5 18.84 5.06 19.65 6.18 20.05C6.58 20.19 6.9 20.26 7.14 20.26C8.24 20.26 9.12 19.93 9.78 19.27C10.46 18.61 10.8 17.77 10.8 16.75C10.8 15.53 10.28 14.54 9.24 13.78C8.46 13.22 7.61 12.75 6.69 12.37C5.79 11.99 5.18 11.72 4.86 11.56C4.54 11.4 4.2 11.21 3.84 10.99C3.48 10.77 3.08 10.46 2.64 10.06C1.68 9.22 1.2 8.09 1.2 6.67C1.2 5.23 1.59 4.02 2.37 3.04C3.77 1.26 5.87 0.37 8.67 0.37C10.15 0.37 11.4 0.659999 12.42 1.24C13.44 1.8 13.95 2.58 13.95 3.58C13.95 4.3 13.74 4.9 13.32 5.38C12.92 5.86 12.4 6.1 11.76 6.1C11.46 6.1 11.16 6.04 10.86 5.92C10.58 5.8 10.44 5.62 10.44 5.38ZM26.213 13L26.153 16.84C26.153 19.5 26.443 21.1 27.023 21.64C27.103 21.72 27.143 21.81 27.143 21.91C27.143 22.21 26.493 22.36 25.193 22.36C23.913 22.36 23.233 21.98 23.153 21.22C23.133 21.04 23.123 20.67 23.123 20.11L23.243 15.31C23.243 15.17 23.163 15.1 23.003 15.1C22.043 15.1 21.143 15.37 20.303 15.91C19.463 16.45 19.043 17.14 19.043 17.98C19.043 18.42 19.163 18.79 19.403 19.09C19.643 19.39 19.933 19.54 20.273 19.54C20.633 19.54 20.923 19.47 21.143 19.33C21.383 19.19 21.523 19.11 21.563 19.09C21.903 19.13 22.073 19.49 22.073 20.17C22.073 20.83 21.763 21.37 21.143 21.79C20.523 22.19 19.873 22.39 19.193 22.39C18.513 22.39 17.923 22.27 17.423 22.03C16.943 21.79 16.593 21.52 16.373 21.22C16.153 20.92 15.973 20.58 15.833 20.2C15.693 19.74 15.623 19.34 15.623 19C15.623 17.6 16.063 16.48 16.943 15.64C17.823 14.8 18.953 14.2 20.333 13.84C22.153 13.48 23.103 13.15 23.183 12.85C23.243 12.63 23.273 12.26 23.273 11.74C23.273 10.68 22.733 10.15 21.653 10.15C21.193 10.15 20.783 10.3 20.423 10.6C20.063 10.88 19.883 11.24 19.883 11.68L20.063 12.4C20.023 12.74 19.663 12.94 18.983 13L18.653 13.03C18.053 13.03 17.573 12.88 17.213 12.58C16.873 12.28 16.703 11.88 16.703 11.38C16.703 11.06 16.803 10.71 17.003 10.33C17.223 9.93 17.493 9.61 17.813 9.37C18.133 9.13 18.623 8.92 19.283 8.74C19.963 8.54 20.613 8.44 21.233 8.44C21.853 8.44 22.333 8.46 22.673 8.5C23.013 8.54 23.473 8.64 24.053 8.8C24.653 8.94 25.143 9.22 25.523 9.64C25.923 10.06 26.133 10.51 26.153 10.99C26.193 11.45 26.213 12.12 26.213 13ZM28.3289 17.41C28.3689 15.39 28.3889 13.73 28.3889 12.43C28.3889 11.13 28.2989 9.89 28.1189 8.71C28.1189 8.51 28.3189 8.41 28.7189 8.41C29.1189 8.41 29.4589 8.46 29.7389 8.56C30.0389 8.66 30.2489 8.77 30.3689 8.89C30.6889 9.21 30.8689 9.37 30.9089 9.37C30.9689 9.37 31.1289 9.28 31.3889 9.1C32.1689 8.6 33.0289 8.35 33.9689 8.35C34.9289 8.35 35.7589 8.59 36.4589 9.07C37.1789 9.55 37.6889 10.18 37.9889 10.96C38.5289 12.3 38.7989 13.72 38.7989 15.22C38.7989 16.7 38.5289 18.18 37.9889 19.66C37.6889 20.46 37.2489 21.12 36.6689 21.64C36.0889 22.14 35.4089 22.39 34.6289 22.39C33.0889 22.39 32.3189 21.5 32.3189 19.72C32.3189 19.24 32.4189 19 32.6189 19C32.6589 19 32.7689 19.05 32.9489 19.15C33.1489 19.23 33.3389 19.27 33.5189 19.27C34.9389 19.27 35.6489 17.77 35.6489 14.77C35.6489 11.75 34.8889 10.24 33.3689 10.24C32.9489 10.24 32.5889 10.34 32.2889 10.54C32.0089 10.72 31.8289 10.9 31.7489 11.08L31.6289 11.38C31.3489 13.18 31.2089 16.65 31.2089 21.79C31.2089 24.11 31.2489 25.77 31.3289 26.77C31.4289 27.79 31.4789 28.4 31.4789 28.6C31.4789 28.8 31.4189 28.98 31.2989 29.14C30.8989 29.66 30.3589 30.12 29.6789 30.52C28.9989 30.94 28.3989 31.15 27.8789 31.15C27.6789 31.15 27.5789 31.02 27.5789 30.76C27.8989 28.74 28.1489 24.29 28.3289 17.41ZM40.282 17.41C40.322 15.39 40.342 13.73 40.342 12.43C40.342 11.13 40.252 9.89 40.072 8.71C40.072 8.51 40.272 8.41 40.672 8.41C41.072 8.41 41.412 8.46 41.692 8.56C41.992 8.66 42.202 8.77 42.322 8.89C42.642 9.21 42.822 9.37 42.862 9.37C42.922 9.37 43.082 9.28 43.342 9.1C44.122 8.6 44.982 8.35 45.922 8.35C46.882 8.35 47.712 8.59 48.412 9.07C49.132 9.55 49.642 10.18 49.942 10.96C50.482 12.3 50.752 13.72 50.752 15.22C50.752 16.7 50.482 18.18 49.942 19.66C49.642 20.46 49.202 21.12 48.622 21.64C48.042 22.14 47.362 22.39 46.582 22.39C45.042 22.39 44.272 21.5 44.272 19.72C44.272 19.24 44.372 19 44.572 19C44.612 19 44.722 19.05 44.902 19.15C45.102 19.23 45.292 19.27 45.472 19.27C46.892 19.27 47.602 17.77 47.602 14.77C47.602 11.75 46.842 10.24 45.322 10.24C44.902 10.24 44.542 10.34 44.242 10.54C43.962 10.72 43.782 10.9 43.702 11.08L43.582 11.38C43.302 13.18 43.162 16.65 43.162 21.79C43.162 24.11 43.202 25.77 43.282 26.77C43.382 27.79 43.432 28.4 43.432 28.6C43.432 28.8 43.372 28.98 43.252 29.14C42.852 29.66 42.312 30.12 41.632 30.52C40.952 30.94 40.352 31.15 39.832 31.15C39.632 31.15 39.532 31.02 39.532 30.76C39.852 28.74 40.102 24.29 40.282 17.41ZM55.5122 5.89L55.4822 8.8C55.4822 8.92 55.5222 8.98 55.6022 8.98C55.6822 8.98 55.7622 8.95 55.8422 8.89C56.3422 8.55 57.1322 8.38 58.2122 8.38C60.0322 8.38 61.2922 9 61.9922 10.24C62.2522 10.7 62.3822 11.31 62.3822 12.07C62.3822 12.83 62.3322 13.88 62.2322 15.22C62.1522 16.56 62.1122 17.51 62.1122 18.07C62.1122 20.03 62.3922 21.33 62.9522 21.97C63.0522 22.07 63.1022 22.17 63.1022 22.27C63.1022 22.47 62.6722 22.57 61.8122 22.57C59.4922 22.57 58.3322 21.49 58.3322 19.33C58.3322 18.49 58.5322 17.31 58.9322 15.79C59.3322 14.27 59.5322 13.15 59.5322 12.43C59.5322 11.71 59.3622 11.16 59.0222 10.78C58.6822 10.38 58.2122 10.18 57.6122 10.18C57.0122 10.18 56.5322 10.31 56.1722 10.57C55.8322 10.83 55.6222 11.1 55.5422 11.38L55.4522 11.77C55.4322 12.15 55.4222 13.36 55.4222 15.4C55.4222 17.44 55.4722 18.77 55.5722 19.39C55.6722 19.99 55.7222 20.33 55.7222 20.41C55.7222 20.99 55.3322 21.51 54.5522 21.97C53.7722 22.41 53.0022 22.63 52.2422 22.63C51.9622 22.63 51.8222 22.47 51.8222 22.15L51.8822 21.58C52.3222 18.22 52.5422 14.58 52.5422 10.66C52.5422 9.14 52.4822 7.6 52.3622 6.04L52.3322 5.38C52.2922 4.82 52.1722 4.34 51.9722 3.94C51.7922 3.54 51.6222 3.28 51.4622 3.16L51.1922 3.01C51.0522 2.93 50.9822 2.84 50.9822 2.74C50.9822 2.46 51.4522 2.12 52.3922 1.72C53.3322 1.3 54.0522 1.09 54.5522 1.09C55.0722 1.09 55.3522 1.2 55.3922 1.42C55.4722 2.44 55.5122 3.93 55.5122 5.89ZM67.0955 5.95L66.3755 5.92C65.8355 5.92 65.4855 6.05 65.3255 6.31C65.2855 6.37 65.2355 6.4 65.1755 6.4C64.9155 6.4 64.7855 5.96 64.7855 5.08C64.7855 4.18 64.9155 3.61 65.1755 3.37C65.4555 3.13 65.9255 3.01 66.5855 3.01C67.2655 3.01 67.7255 3.13 67.9655 3.37C68.2055 3.59 68.3255 3.97 68.3255 4.51C68.3255 5.05 68.2355 5.43 68.0555 5.65C67.8755 5.85 67.5555 5.95 67.0955 5.95ZM64.6955 21.1L65.0255 14.11C65.0255 12.45 64.8355 11.32 64.4555 10.72C64.3355 10.52 64.1955 10.37 64.0355 10.27C63.9155 10.23 63.8555 10.15 63.8555 10.03C63.8555 9.67 64.3655 9.32 65.3855 8.98C66.4055 8.64 67.1455 8.47 67.6055 8.47C68.0855 8.47 68.3355 8.59 68.3555 8.83C68.3555 9.23 68.2955 10.37 68.1755 12.25C68.0755 14.11 68.0255 16.07 68.0255 18.13C68.0255 20.19 68.1455 21.47 68.3855 21.97C68.4455 22.07 68.4755 22.17 68.4755 22.27C68.4755 22.53 68.0955 22.66 67.3355 22.66C66.5755 22.66 65.7955 22.46 64.9955 22.06C64.7955 21.96 64.6955 21.64 64.6955 21.1ZM79.4543 13.96L79.5743 15.01C79.5743 15.39 79.2143 15.58 78.4943 15.58C77.0343 15.58 76.3043 15.03 76.3043 13.93C76.3043 13.67 76.3743 13.31 76.5143 12.85C76.6543 12.39 76.7243 11.99 76.7243 11.65C76.7243 11.31 76.6243 11.02 76.4243 10.78C76.2243 10.52 75.9343 10.39 75.5543 10.39C75.1743 10.39 74.8443 10.53 74.5643 10.81C74.3043 11.07 74.1443 11.34 74.0843 11.62L73.9643 12.04C73.8443 12.66 73.7843 13.7 73.7843 15.16C73.7843 16.6 73.8043 17.74 73.8443 18.58C73.8843 19.4 73.9243 19.97 73.9643 20.29C74.0043 20.59 74.0243 20.77 74.0243 20.83C74.0243 21.33 73.7143 21.73 73.0943 22.03C72.4743 22.35 71.8543 22.51 71.2343 22.51C70.6143 22.51 70.3043 22.38 70.3043 22.12L70.4543 21.19C70.7343 19.45 70.8743 17.18 70.8743 14.38C70.8743 11.58 70.7743 9.68 70.5743 8.68C70.5743 8.44 70.7843 8.32 71.2043 8.32C72.2843 8.32 73.0043 8.69 73.3643 9.43C73.3843 9.51 73.4143 9.55 73.4543 9.55C73.5143 9.55 73.6543 9.46 73.8743 9.28C74.5343 8.74 75.3143 8.47 76.2143 8.47C76.7743 8.47 77.3343 8.58 77.8943 8.8C79.0343 9.26 79.6043 10.22 79.6043 11.68L79.4543 13.96ZM83.8184 14.38L83.8484 15.13C83.8484 15.25 83.9284 15.31 84.0884 15.31C84.7284 15.25 85.2884 15.09 85.7684 14.83C86.2484 14.55 86.6084 14.24 86.8484 13.9C87.3284 13.16 87.5884 12.52 87.6284 11.98L87.6584 11.62C87.6584 10.54 87.2284 10 86.3684 10C85.7284 10 85.2084 10.28 84.8084 10.84C84.1484 11.72 83.8184 12.9 83.8184 14.38ZM90.3584 18.37C90.3584 19.13 90.1984 19.8 89.8784 20.38C89.5784 20.94 89.2284 21.36 88.8284 21.64C88.4484 21.9 87.9984 22.11 87.4784 22.27C86.8184 22.47 86.1884 22.57 85.5884 22.57C83.9084 22.57 82.6684 21.94 81.8684 20.68C81.0684 19.42 80.6684 17.82 80.6684 15.88C80.6684 13.92 81.1584 12.18 82.1384 10.66C83.1384 9.14 84.6284 8.38 86.6084 8.38C88.4084 8.38 89.6284 9.01 90.2684 10.27C90.5284 10.75 90.6584 11.21 90.6584 11.65C90.6584 12.07 90.6384 12.41 90.5984 12.67C90.5584 12.91 90.4184 13.28 90.1784 13.78C89.9384 14.28 89.6184 14.73 89.2184 15.13C88.8184 15.53 88.1884 15.91 87.3284 16.27C86.4684 16.63 85.4584 16.87 84.2984 16.99C84.1384 16.99 84.0584 17.06 84.0584 17.2C84.0584 17.38 84.1184 17.65 84.2384 18.01C84.3784 18.35 84.5284 18.64 84.6884 18.88C85.1284 19.44 85.7784 19.72 86.6384 19.72C87.4984 19.72 88.2284 19.44 88.8284 18.88C89.1484 18.58 89.4084 18.21 89.6084 17.77C89.6884 17.61 89.7884 17.53 89.9084 17.53C90.0484 17.53 90.1584 17.64 90.2384 17.86C90.3184 18.08 90.3584 18.25 90.3584 18.37ZM98.8233 9.43C98.9033 9.43 99.0533 9.51 99.2733 9.67C99.4933 9.83 99.7233 9.91 99.9633 9.91H99.9933C100.673 9.91 101.213 9.64 101.613 9.1C102.013 8.56 102.233 8.02 102.273 7.48L102.363 6.67C102.363 5.91 102.243 5.26 102.003 4.72C101.783 4.16 101.523 3.75 101.223 3.49C100.923 3.21 100.573 3 100.173 2.86C99.6733 2.66 99.1433 2.56 98.5833 2.56C98.0433 2.56 97.6033 2.62 97.2633 2.74C96.9233 2.84 96.7333 2.94 96.6933 3.04L96.6633 3.22C96.4833 5.92 96.3933 8.34 96.3933 10.48C96.3933 12.6 96.4233 14.43 96.4833 15.97C96.5633 17.51 96.6333 18.7 96.6933 19.54C96.7733 20.36 96.8133 20.81 96.8133 20.89C96.8133 21.39 96.3733 21.79 95.4933 22.09C94.6133 22.39 93.7433 22.54 92.8833 22.54C92.4833 22.54 92.2833 22.44 92.2833 22.24C92.2833 22.18 92.3133 22.04 92.3733 21.82C92.7533 20.94 92.9433 16.85 92.9433 9.55C92.9433 5.25 92.6533 2.79 92.0733 2.17C91.9533 2.05 91.8933 1.93 91.8933 1.81C91.8933 1.67 92.0333 1.52 92.3133 1.36C92.6133 1.2 93.4333 1.02 94.7733 0.819999C96.1133 0.6 97.5333 0.49 99.0333 0.49C101.393 0.49 103.163 1.13 104.343 2.41C105.543 3.69 106.143 5.22 106.143 7C106.143 8.76 105.653 10.29 104.673 11.59C103.713 12.89 102.453 13.54 100.893 13.54C100.393 13.54 99.8933 13.45 99.3933 13.27C98.3933 12.91 97.8933 12.16 97.8933 11.02C97.8933 10.78 97.9733 10.46 98.1333 10.06C98.2933 9.64 98.5233 9.43 98.8233 9.43ZM116.017 13.96L116.137 15.01C116.137 15.39 115.777 15.58 115.057 15.58C113.597 15.58 112.867 15.03 112.867 13.93C112.867 13.67 112.937 13.31 113.077 12.85C113.217 12.39 113.287 11.99 113.287 11.65C113.287 11.31 113.187 11.02 112.987 10.78C112.787 10.52 112.497 10.39 112.117 10.39C111.737 10.39 111.407 10.53 111.127 10.81C110.867 11.07 110.707 11.34 110.647 11.62L110.527 12.04C110.407 12.66 110.347 13.7 110.347 15.16C110.347 16.6 110.367 17.74 110.407 18.58C110.447 19.4 110.487 19.97 110.527 20.29C110.567 20.59 110.587 20.77 110.587 20.83C110.587 21.33 110.277 21.73 109.657 22.03C109.037 22.35 108.417 22.51 107.797 22.51C107.177 22.51 106.867 22.38 106.867 22.12L107.017 21.19C107.297 19.45 107.437 17.18 107.437 14.38C107.437 11.58 107.337 9.68 107.137 8.68C107.137 8.44 107.347 8.32 107.767 8.32C108.847 8.32 109.567 8.69 109.927 9.43C109.947 9.51 109.977 9.55 110.017 9.55C110.077 9.55 110.217 9.46 110.437 9.28C111.097 8.74 111.877 8.47 112.777 8.47C113.337 8.47 113.897 8.58 114.457 8.8C115.597 9.26 116.167 10.22 116.167 11.68L116.017 13.96ZM119.709 10.69C119.189 10.71 118.809 10.73 118.569 10.75C118.349 10.75 118.239 10.69 118.239 10.57C118.239 10.45 118.299 10.33 118.419 10.21C119.699 9.03 121.859 8.44 124.899 8.44C125.939 8.44 126.759 8.53 127.359 8.71L127.659 8.8C127.899 8.9 128.019 9.01 128.019 9.13C128.019 9.23 127.949 9.31 127.809 9.37C127.269 9.53 126.749 9.79 126.249 10.15C125.749 10.49 125.499 10.73 125.499 10.87L125.679 11.08C126.319 11.44 126.809 12.01 127.149 12.79C127.509 13.57 127.709 14.26 127.749 14.86L127.809 15.79C127.809 17.77 127.259 19.4 126.159 20.68C125.059 21.96 123.559 22.6 121.659 22.6C120.699 22.6 119.869 22.43 119.169 22.09C118.469 21.75 117.949 21.37 117.609 20.95C117.289 20.51 117.029 20.02 116.829 19.48C116.589 18.74 116.469 17.98 116.469 17.2C116.469 16.4 116.599 15.6 116.859 14.8C117.139 14 117.449 13.41 117.789 13.03C118.149 12.65 118.549 12.34 118.989 12.1C119.549 11.8 119.999 11.65 120.339 11.65C120.679 11.65 120.849 11.72 120.849 11.86L120.669 12.16C120.229 12.68 119.909 13.36 119.709 14.2C119.529 15.04 119.439 15.79 119.439 16.45C119.439 17.09 119.519 17.73 119.679 18.37C119.839 19.01 120.019 19.49 120.219 19.81C120.419 20.11 120.649 20.34 120.909 20.5C121.289 20.74 121.689 20.86 122.109 20.86C122.529 20.86 122.939 20.7 123.339 20.38C123.739 20.04 124.029 19.6 124.209 19.06C124.569 18.06 124.749 17.03 124.749 15.97C124.749 14.29 124.319 12.99 123.459 12.07C122.619 11.15 121.369 10.69 119.709 10.69ZM139.177 18.55C139.177 19.69 138.717 20.64 137.797 21.4C136.897 22.14 135.817 22.51 134.557 22.51C132.717 22.51 131.367 21.96 130.507 20.86C129.647 19.74 129.217 18.23 129.217 16.33C129.217 14.31 129.667 12.52 130.567 10.96C131.007 10.16 131.637 9.53 132.457 9.07C133.277 8.61 134.237 8.38 135.337 8.38C136.997 8.38 138.167 8.94 138.847 10.06C139.127 10.52 139.267 11.06 139.267 11.68C139.267 12.64 138.867 13.36 138.067 13.84C137.747 14.02 137.447 14.11 137.167 14.11C136.907 14.11 136.687 14.1 136.507 14.08C136.347 14.04 136.127 13.9 135.847 13.66C135.567 13.42 135.427 13.09 135.427 12.67C135.447 12.45 135.617 12.27 135.937 12.13C136.237 11.95 136.387 11.63 136.387 11.17C136.387 10.39 135.907 10 134.947 10C134.707 10 134.417 10.11 134.077 10.33C133.757 10.53 133.487 10.8 133.267 11.14C133.047 11.46 132.837 11.98 132.637 12.7C132.457 13.4 132.367 14.08 132.367 14.74C132.367 15.38 132.387 15.87 132.427 16.21C132.487 16.53 132.597 16.98 132.757 17.56C132.937 18.12 133.257 18.58 133.717 18.94C134.197 19.3 134.787 19.48 135.487 19.48C136.327 19.48 137.067 19.13 137.707 18.43C137.967 18.15 138.177 17.81 138.337 17.41C138.417 17.25 138.517 17.17 138.637 17.17C138.817 17.17 138.947 17.34 139.027 17.68C139.127 18 139.177 18.29 139.177 18.55ZM151.09 8.65C150.73 10.81 150.55 13.56 150.55 16.9C150.55 19.36 150.65 20.98 150.85 21.76L150.97 22.15C150.97 22.41 150.75 22.54 150.31 22.54C148.77 22.54 147.89 22.11 147.67 21.25C147.65 21.15 147.6 21.1 147.52 21.1C147.46 21.1 147.4 21.14 147.34 21.22C146.72 22.04 145.76 22.45 144.46 22.45C143.74 22.45 142.99 22.27 142.21 21.91C141.73 21.69 141.34 21.31 141.04 20.77C140.74 20.21 140.59 19.53 140.59 18.73L141.04 12.16C141.04 10.78 140.9 9.8 140.62 9.22C140.52 9 140.47 8.86 140.47 8.8C140.47 8.68 140.52 8.6 140.62 8.56C140.94 8.46 141.35 8.41 141.85 8.41C143.79 8.41 144.76 9.21 144.76 10.81C144.76 11.31 144.55 12.45 144.13 14.23C143.73 16.01 143.53 17.28 143.53 18.04C143.53 18.78 143.69 19.35 144.01 19.75C144.35 20.15 144.81 20.35 145.39 20.35C145.99 20.35 146.46 20.14 146.8 19.72C147.14 19.3 147.34 18.88 147.4 18.46L147.49 17.83C147.57 17.13 147.61 15.9 147.61 14.14C147.61 12.38 147.55 11.27 147.43 10.81C147.33 10.33 147.28 10.03 147.28 9.91C147.28 9.41 147.68 9.02 148.48 8.74C149.28 8.44 150 8.29 150.64 8.29C150.94 8.29 151.09 8.41 151.09 8.65ZM161.691 13.96L161.811 15.01C161.811 15.39 161.451 15.58 160.731 15.58C159.271 15.58 158.541 15.03 158.541 13.93C158.541 13.67 158.611 13.31 158.751 12.85C158.891 12.39 158.961 11.99 158.961 11.65C158.961 11.31 158.861 11.02 158.661 10.78C158.461 10.52 158.171 10.39 157.791 10.39C157.411 10.39 157.081 10.53 156.801 10.81C156.541 11.07 156.381 11.34 156.321 11.62L156.201 12.04C156.081 12.66 156.021 13.7 156.021 15.16C156.021 16.6 156.041 17.74 156.081 18.58C156.121 19.4 156.161 19.97 156.201 20.29C156.241 20.59 156.261 20.77 156.261 20.83C156.261 21.33 155.951 21.73 155.331 22.03C154.711 22.35 154.091 22.51 153.471 22.51C152.851 22.51 152.541 22.38 152.541 22.12L152.691 21.19C152.971 19.45 153.111 17.18 153.111 14.38C153.111 11.58 153.011 9.68 152.811 8.68C152.811 8.44 153.021 8.32 153.441 8.32C154.521 8.32 155.241 8.69 155.601 9.43C155.621 9.51 155.651 9.55 155.691 9.55C155.751 9.55 155.891 9.46 156.111 9.28C156.771 8.74 157.551 8.47 158.451 8.47C159.011 8.47 159.571 8.58 160.131 8.8C161.271 9.26 161.841 10.22 161.841 11.68L161.691 13.96ZM166.055 14.38L166.085 15.13C166.085 15.25 166.165 15.31 166.325 15.31C166.965 15.25 167.525 15.09 168.005 14.83C168.485 14.55 168.845 14.24 169.085 13.9C169.565 13.16 169.825 12.52 169.865 11.98L169.895 11.62C169.895 10.54 169.465 10 168.605 10C167.965 10 167.445 10.28 167.045 10.84C166.385 11.72 166.055 12.9 166.055 14.38ZM172.595 18.37C172.595 19.13 172.435 19.8 172.115 20.38C171.815 20.94 171.465 21.36 171.065 21.64C170.685 21.9 170.235 22.11 169.715 22.27C169.055 22.47 168.425 22.57 167.825 22.57C166.145 22.57 164.905 21.94 164.105 20.68C163.305 19.42 162.905 17.82 162.905 15.88C162.905 13.92 163.395 12.18 164.375 10.66C165.375 9.14 166.865 8.38 168.845 8.38C170.645 8.38 171.865 9.01 172.505 10.27C172.765 10.75 172.895 11.21 172.895 11.65C172.895 12.07 172.875 12.41 172.835 12.67C172.795 12.91 172.655 13.28 172.415 13.78C172.175 14.28 171.855 14.73 171.455 15.13C171.055 15.53 170.425 15.91 169.565 16.27C168.705 16.63 167.695 16.87 166.535 16.99C166.375 16.99 166.295 17.06 166.295 17.2C166.295 17.38 166.355 17.65 166.475 18.01C166.615 18.35 166.765 18.64 166.925 18.88C167.365 19.44 168.015 19.72 168.875 19.72C169.735 19.72 170.465 19.44 171.065 18.88C171.385 18.58 171.645 18.21 171.845 17.77C171.925 17.61 172.025 17.53 172.145 17.53C172.285 17.53 172.395 17.64 172.475 17.86C172.555 18.08 172.595 18.25 172.595 18.37Z" fill="#05376A"/>
</svg>
