<svg width="173" height="32" viewBox="0 0 173 32" fill="none" xmlns="http://www.w3.org/2000/svg">
<path d="M10.44 5.26086L10.56 4.33086C10.56 3.41086 10.2 2.82086 9.48 2.56086C8.92 2.38086 8.49 2.29086 8.19 2.29086H8.16C7.56 2.29086 7.04 2.39086 6.6 2.59086C6.16 2.77086 5.84 3.00086 5.64 3.28086C5.22 3.86086 4.98 4.47086 4.92 5.11086C4.92 5.87086 5.26 6.53086 5.94 7.09086C6.62 7.63086 7.44 8.11086 8.4 8.53086C9.38 8.93086 10.35 9.37086 11.31 9.85086C12.29 10.3309 13.12 11.0209 13.8 11.9209C14.48 12.8209 14.82 13.9009 14.82 15.1609C14.82 17.6209 14.04 19.4609 12.48 20.6809C10.94 21.9009 9.18 22.5109 7.2 22.5109C5.24 22.5109 3.61 22.0709 2.31 21.1909C1.03 20.2909 0.39 19.0909 0.39 17.5909V17.5609C0.39 16.8209 0.5 16.1809 0.72 15.6409C0.96 15.0809 1.24 14.6709 1.56 14.4109C2.22 13.8709 2.82 13.5809 3.36 13.5409L3.72 13.5109C4.28 13.5109 4.79 13.6509 5.25 13.9309C5.71 14.1909 5.94 14.5609 5.94 15.0409C5.94 15.2809 5.81 15.4809 5.55 15.6409C5.29 15.8009 5.06 16.0409 4.86 16.3609C4.68 16.6809 4.58 16.9509 4.56 17.1709L4.5 17.5009C4.5 18.7209 5.06 19.5309 6.18 19.9309C6.58 20.0709 6.9 20.1409 7.14 20.1409C8.24 20.1409 9.12 19.8109 9.78 19.1509C10.46 18.4909 10.8 17.6509 10.8 16.6309C10.8 15.4109 10.28 14.4209 9.24 13.6609C8.46 13.1009 7.61 12.6309 6.69 12.2509C5.79 11.8709 5.18 11.6009 4.86 11.4409C4.54 11.2809 4.2 11.0909 3.84 10.8709C3.48 10.6509 3.08 10.3409 2.64 9.94086C1.68 9.10086 1.2 7.97086 1.2 6.55086C1.2 5.11086 1.59 3.90086 2.37 2.92086C3.77 1.14086 5.87 0.250859 8.67 0.250859C10.15 0.250859 11.4 0.540859 12.42 1.12086C13.44 1.68086 13.95 2.46086 13.95 3.46086C13.95 4.18086 13.74 4.78086 13.32 5.26086C12.92 5.74086 12.4 5.98086 11.76 5.98086C11.46 5.98086 11.16 5.92086 10.86 5.80086C10.58 5.68086 10.44 5.50086 10.44 5.26086ZM26.213 12.8809L26.153 16.7209C26.153 19.3809 26.443 20.9809 27.023 21.5209C27.103 21.6009 27.143 21.6909 27.143 21.7909C27.143 22.0909 26.493 22.2409 25.193 22.2409C23.913 22.2409 23.233 21.8609 23.153 21.1009C23.133 20.9209 23.123 20.5509 23.123 19.9909L23.243 15.1909C23.243 15.0509 23.163 14.9809 23.003 14.9809C22.043 14.9809 21.143 15.2509 20.303 15.7909C19.463 16.3309 19.043 17.0209 19.043 17.8609C19.043 18.3009 19.163 18.6709 19.403 18.9709C19.643 19.2709 19.933 19.4209 20.273 19.4209C20.633 19.4209 20.923 19.3509 21.143 19.2109C21.383 19.0709 21.523 18.9909 21.563 18.9709C21.903 19.0109 22.073 19.3709 22.073 20.0509C22.073 20.7109 21.763 21.2509 21.143 21.6709C20.523 22.0709 19.873 22.2709 19.193 22.2709C18.513 22.2709 17.923 22.1509 17.423 21.9109C16.943 21.6709 16.593 21.4009 16.373 21.1009C16.153 20.8009 15.973 20.4609 15.833 20.0809C15.693 19.6209 15.623 19.2209 15.623 18.8809C15.623 17.4809 16.063 16.3609 16.943 15.5209C17.823 14.6809 18.953 14.0809 20.333 13.7209C22.153 13.3609 23.103 13.0309 23.183 12.7309C23.243 12.5109 23.273 12.1409 23.273 11.6209C23.273 10.5609 22.733 10.0309 21.653 10.0309C21.193 10.0309 20.783 10.1809 20.423 10.4809C20.063 10.7609 19.883 11.1209 19.883 11.5609L20.063 12.2809C20.023 12.6209 19.663 12.8209 18.983 12.8809L18.653 12.9109C18.053 12.9109 17.573 12.7609 17.213 12.4609C16.873 12.1609 16.703 11.7609 16.703 11.2609C16.703 10.9409 16.803 10.5909 17.003 10.2109C17.223 9.81086 17.493 9.49086 17.813 9.25086C18.133 9.01086 18.623 8.80086 19.283 8.62086C19.963 8.42086 20.613 8.32086 21.233 8.32086C21.853 8.32086 22.333 8.34086 22.673 8.38086C23.013 8.42086 23.473 8.52086 24.053 8.68086C24.653 8.82086 25.143 9.10086 25.523 9.52086C25.923 9.94086 26.133 10.3909 26.153 10.8709C26.193 11.3309 26.213 12.0009 26.213 12.8809ZM28.3289 17.2909C28.3689 15.2709 28.3889 13.6109 28.3889 12.3109C28.3889 11.0109 28.2989 9.77086 28.1189 8.59086C28.1189 8.39086 28.3189 8.29086 28.7189 8.29086C29.1189 8.29086 29.4589 8.34086 29.7389 8.44086C30.0389 8.54086 30.2489 8.65086 30.3689 8.77086C30.6889 9.09086 30.8689 9.25086 30.9089 9.25086C30.9689 9.25086 31.1289 9.16086 31.3889 8.98086C32.1689 8.48086 33.0289 8.23086 33.9689 8.23086C34.9289 8.23086 35.7589 8.47086 36.4589 8.95086C37.1789 9.43086 37.6889 10.0609 37.9889 10.8409C38.5289 12.1809 38.7989 13.6009 38.7989 15.1009C38.7989 16.5809 38.5289 18.0609 37.9889 19.5409C37.6889 20.3409 37.2489 21.0009 36.6689 21.5209C36.0889 22.0209 35.4089 22.2709 34.6289 22.2709C33.0889 22.2709 32.3189 21.3809 32.3189 19.6009C32.3189 19.1209 32.4189 18.8809 32.6189 18.8809C32.6589 18.8809 32.7689 18.9309 32.9489 19.0309C33.1489 19.1109 33.3389 19.1509 33.5189 19.1509C34.9389 19.1509 35.6489 17.6509 35.6489 14.6509C35.6489 11.6309 34.8889 10.1209 33.3689 10.1209C32.9489 10.1209 32.5889 10.2209 32.2889 10.4209C32.0089 10.6009 31.8289 10.7809 31.7489 10.9609L31.6289 11.2609C31.3489 13.0609 31.2089 16.5309 31.2089 21.6709C31.2089 23.9909 31.2489 25.6509 31.3289 26.6509C31.4289 27.6709 31.4789 28.2809 31.4789 28.4809C31.4789 28.6809 31.4189 28.8609 31.2989 29.0209C30.8989 29.5409 30.3589 30.0009 29.6789 30.4009C28.9989 30.8209 28.3989 31.0309 27.8789 31.0309C27.6789 31.0309 27.5789 30.9009 27.5789 30.6409C27.8989 28.6209 28.1489 24.1709 28.3289 17.2909ZM40.282 17.2909C40.322 15.2709 40.342 13.6109 40.342 12.3109C40.342 11.0109 40.252 9.77086 40.072 8.59086C40.072 8.39086 40.272 8.29086 40.672 8.29086C41.072 8.29086 41.412 8.34086 41.692 8.44086C41.992 8.54086 42.202 8.65086 42.322 8.77086C42.642 9.09086 42.822 9.25086 42.862 9.25086C42.922 9.25086 43.082 9.16086 43.342 8.98086C44.122 8.48086 44.982 8.23086 45.922 8.23086C46.882 8.23086 47.712 8.47086 48.412 8.95086C49.132 9.43086 49.642 10.0609 49.942 10.8409C50.482 12.1809 50.752 13.6009 50.752 15.1009C50.752 16.5809 50.482 18.0609 49.942 19.5409C49.642 20.3409 49.202 21.0009 48.622 21.5209C48.042 22.0209 47.362 22.2709 46.582 22.2709C45.042 22.2709 44.272 21.3809 44.272 19.6009C44.272 19.1209 44.372 18.8809 44.572 18.8809C44.612 18.8809 44.722 18.9309 44.902 19.0309C45.102 19.1109 45.292 19.1509 45.472 19.1509C46.892 19.1509 47.602 17.6509 47.602 14.6509C47.602 11.6309 46.842 10.1209 45.322 10.1209C44.902 10.1209 44.542 10.2209 44.242 10.4209C43.962 10.6009 43.782 10.7809 43.702 10.9609L43.582 11.2609C43.302 13.0609 43.162 16.5309 43.162 21.6709C43.162 23.9909 43.202 25.6509 43.282 26.6509C43.382 27.6709 43.432 28.2809 43.432 28.4809C43.432 28.6809 43.372 28.8609 43.252 29.0209C42.852 29.5409 42.312 30.0009 41.632 30.4009C40.952 30.8209 40.352 31.0309 39.832 31.0309C39.632 31.0309 39.532 30.9009 39.532 30.6409C39.852 28.6209 40.102 24.1709 40.282 17.2909ZM55.5122 5.77086L55.4822 8.68086C55.4822 8.80086 55.5222 8.86086 55.6022 8.86086C55.6822 8.86086 55.7622 8.83086 55.8422 8.77086C56.3422 8.43086 57.1322 8.26086 58.2122 8.26086C60.0322 8.26086 61.2922 8.88086 61.9922 10.1209C62.2522 10.5809 62.3822 11.1909 62.3822 11.9509C62.3822 12.7109 62.3322 13.7609 62.2322 15.1009C62.1522 16.4409 62.1122 17.3909 62.1122 17.9509C62.1122 19.9109 62.3922 21.2109 62.9522 21.8509C63.0522 21.9509 63.1022 22.0509 63.1022 22.1509C63.1022 22.3509 62.6722 22.4509 61.8122 22.4509C59.4922 22.4509 58.3322 21.3709 58.3322 19.2109C58.3322 18.3709 58.5322 17.1909 58.9322 15.6709C59.3322 14.1509 59.5322 13.0309 59.5322 12.3109C59.5322 11.5909 59.3622 11.0409 59.0222 10.6609C58.6822 10.2609 58.2122 10.0609 57.6122 10.0609C57.0122 10.0609 56.5322 10.1909 56.1722 10.4509C55.8322 10.7109 55.6222 10.9809 55.5422 11.2609L55.4522 11.6509C55.4322 12.0309 55.4222 13.2409 55.4222 15.2809C55.4222 17.3209 55.4722 18.6509 55.5722 19.2709C55.6722 19.8709 55.7222 20.2109 55.7222 20.2909C55.7222 20.8709 55.3322 21.3909 54.5522 21.8509C53.7722 22.2909 53.0022 22.5109 52.2422 22.5109C51.9622 22.5109 51.8222 22.3509 51.8222 22.0309L51.8822 21.4609C52.3222 18.1009 52.5422 14.4609 52.5422 10.5409C52.5422 9.02086 52.4822 7.48086 52.3622 5.92086L52.3322 5.26086C52.2922 4.70086 52.1722 4.22086 51.9722 3.82086C51.7922 3.42086 51.6222 3.16086 51.4622 3.04086L51.1922 2.89086C51.0522 2.81086 50.9822 2.72086 50.9822 2.62086C50.9822 2.34086 51.4522 2.00086 52.3922 1.60086C53.3322 1.18086 54.0522 0.970859 54.5522 0.970859C55.0722 0.970859 55.3522 1.08086 55.3922 1.30086C55.4722 2.32086 55.5122 3.81086 55.5122 5.77086ZM67.0955 5.83086L66.3755 5.80086C65.8355 5.80086 65.4855 5.93086 65.3255 6.19086C65.2855 6.25086 65.2355 6.28086 65.1755 6.28086C64.9155 6.28086 64.7855 5.84086 64.7855 4.96086C64.7855 4.06086 64.9155 3.49086 65.1755 3.25086C65.4555 3.01086 65.9255 2.89086 66.5855 2.89086C67.2655 2.89086 67.7255 3.01086 67.9655 3.25086C68.2055 3.47086 68.3255 3.85086 68.3255 4.39086C68.3255 4.93086 68.2355 5.31086 68.0555 5.53086C67.8755 5.73086 67.5555 5.83086 67.0955 5.83086ZM64.6955 20.9809L65.0255 13.9909C65.0255 12.3309 64.8355 11.2009 64.4555 10.6009C64.3355 10.4009 64.1955 10.2509 64.0355 10.1509C63.9155 10.1109 63.8555 10.0309 63.8555 9.91086C63.8555 9.55086 64.3655 9.20086 65.3855 8.86086C66.4055 8.52086 67.1455 8.35086 67.6055 8.35086C68.0855 8.35086 68.3355 8.47086 68.3555 8.71086C68.3555 9.11086 68.2955 10.2509 68.1755 12.1309C68.0755 13.9909 68.0255 15.9509 68.0255 18.0109C68.0255 20.0709 68.1455 21.3509 68.3855 21.8509C68.4455 21.9509 68.4755 22.0509 68.4755 22.1509C68.4755 22.4109 68.0955 22.5409 67.3355 22.5409C66.5755 22.5409 65.7955 22.3409 64.9955 21.9409C64.7955 21.8409 64.6955 21.5209 64.6955 20.9809ZM79.4543 13.8409L79.5743 14.8909C79.5743 15.2709 79.2143 15.4609 78.4943 15.4609C77.0343 15.4609 76.3043 14.9109 76.3043 13.8109C76.3043 13.5509 76.3743 13.1909 76.5143 12.7309C76.6543 12.2709 76.7243 11.8709 76.7243 11.5309C76.7243 11.1909 76.6243 10.9009 76.4243 10.6609C76.2243 10.4009 75.9343 10.2709 75.5543 10.2709C75.1743 10.2709 74.8443 10.4109 74.5643 10.6909C74.3043 10.9509 74.1443 11.2209 74.0843 11.5009L73.9643 11.9209C73.8443 12.5409 73.7843 13.5809 73.7843 15.0409C73.7843 16.4809 73.8043 17.6209 73.8443 18.4609C73.8843 19.2809 73.9243 19.8509 73.9643 20.1709C74.0043 20.4709 74.0243 20.6509 74.0243 20.7109C74.0243 21.2109 73.7143 21.6109 73.0943 21.9109C72.4743 22.2309 71.8543 22.3909 71.2343 22.3909C70.6143 22.3909 70.3043 22.2609 70.3043 22.0009L70.4543 21.0709C70.7343 19.3309 70.8743 17.0609 70.8743 14.2609C70.8743 11.4609 70.7743 9.56086 70.5743 8.56086C70.5743 8.32086 70.7843 8.20086 71.2043 8.20086C72.2843 8.20086 73.0043 8.57086 73.3643 9.31086C73.3843 9.39086 73.4143 9.43086 73.4543 9.43086C73.5143 9.43086 73.6543 9.34086 73.8743 9.16086C74.5343 8.62086 75.3143 8.35086 76.2143 8.35086C76.7743 8.35086 77.3343 8.46086 77.8943 8.68086C79.0343 9.14086 79.6043 10.1009 79.6043 11.5609L79.4543 13.8409ZM83.8184 14.2609L83.8484 15.0109C83.8484 15.1309 83.9284 15.1909 84.0884 15.1909C84.7284 15.1309 85.2884 14.9709 85.7684 14.7109C86.2484 14.4309 86.6084 14.1209 86.8484 13.7809C87.3284 13.0409 87.5884 12.4009 87.6284 11.8609L87.6584 11.5009C87.6584 10.4209 87.2284 9.88086 86.3684 9.88086C85.7284 9.88086 85.2084 10.1609 84.8084 10.7209C84.1484 11.6009 83.8184 12.7809 83.8184 14.2609ZM90.3584 18.2509C90.3584 19.0109 90.1984 19.6809 89.8784 20.2609C89.5784 20.8209 89.2284 21.2409 88.8284 21.5209C88.4484 21.7809 87.9984 21.9909 87.4784 22.1509C86.8184 22.3509 86.1884 22.4509 85.5884 22.4509C83.9084 22.4509 82.6684 21.8209 81.8684 20.5609C81.0684 19.3009 80.6684 17.7009 80.6684 15.7609C80.6684 13.8009 81.1584 12.0609 82.1384 10.5409C83.1384 9.02086 84.6284 8.26086 86.6084 8.26086C88.4084 8.26086 89.6284 8.89086 90.2684 10.1509C90.5284 10.6309 90.6584 11.0909 90.6584 11.5309C90.6584 11.9509 90.6384 12.2909 90.5984 12.5509C90.5584 12.7909 90.4184 13.1609 90.1784 13.6609C89.9384 14.1609 89.6184 14.6109 89.2184 15.0109C88.8184 15.4109 88.1884 15.7909 87.3284 16.1509C86.4684 16.5109 85.4584 16.7509 84.2984 16.8709C84.1384 16.8709 84.0584 16.9409 84.0584 17.0809C84.0584 17.2609 84.1184 17.5309 84.2384 17.8909C84.3784 18.2309 84.5284 18.5209 84.6884 18.7609C85.1284 19.3209 85.7784 19.6009 86.6384 19.6009C87.4984 19.6009 88.2284 19.3209 88.8284 18.7609C89.1484 18.4609 89.4084 18.0909 89.6084 17.6509C89.6884 17.4909 89.7884 17.4109 89.9084 17.4109C90.0484 17.4109 90.1584 17.5209 90.2384 17.7409C90.3184 17.9609 90.3584 18.1309 90.3584 18.2509ZM98.8233 9.31086C98.9033 9.31086 99.0533 9.39086 99.2733 9.55086C99.4933 9.71086 99.7233 9.79086 99.9633 9.79086H99.9933C100.673 9.79086 101.213 9.52086 101.613 8.98086C102.013 8.44086 102.233 7.90086 102.273 7.36086L102.363 6.55086C102.363 5.79086 102.243 5.14086 102.003 4.60086C101.783 4.04086 101.523 3.63086 101.223 3.37086C100.923 3.09086 100.573 2.88086 100.173 2.74086C99.6733 2.54086 99.1433 2.44086 98.5833 2.44086C98.0433 2.44086 97.6033 2.50086 97.2633 2.62086C96.9233 2.72086 96.7333 2.82086 96.6933 2.92086L96.6633 3.10086C96.4833 5.80086 96.3933 8.22086 96.3933 10.3609C96.3933 12.4809 96.4233 14.3109 96.4833 15.8509C96.5633 17.3909 96.6333 18.5809 96.6933 19.4209C96.7733 20.2409 96.8133 20.6909 96.8133 20.7709C96.8133 21.2709 96.3733 21.6709 95.4933 21.9709C94.6133 22.2709 93.7433 22.4209 92.8833 22.4209C92.4833 22.4209 92.2833 22.3209 92.2833 22.1209C92.2833 22.0609 92.3133 21.9209 92.3733 21.7009C92.7533 20.8209 92.9433 16.7309 92.9433 9.43086C92.9433 5.13086 92.6533 2.67086 92.0733 2.05086C91.9533 1.93086 91.8933 1.81086 91.8933 1.69086C91.8933 1.55086 92.0333 1.40086 92.3133 1.24086C92.6133 1.08086 93.4333 0.900858 94.7733 0.700858C96.1133 0.480859 97.5333 0.370859 99.0333 0.370859C101.393 0.370859 103.163 1.01086 104.343 2.29086C105.543 3.57086 106.143 5.10086 106.143 6.88086C106.143 8.64086 105.653 10.1709 104.673 11.4709C103.713 12.7709 102.453 13.4209 100.893 13.4209C100.393 13.4209 99.8933 13.3309 99.3933 13.1509C98.3933 12.7909 97.8933 12.0409 97.8933 10.9009C97.8933 10.6609 97.9733 10.3409 98.1333 9.94086C98.2933 9.52086 98.5233 9.31086 98.8233 9.31086ZM116.017 13.8409L116.137 14.8909C116.137 15.2709 115.777 15.4609 115.057 15.4609C113.597 15.4609 112.867 14.9109 112.867 13.8109C112.867 13.5509 112.937 13.1909 113.077 12.7309C113.217 12.2709 113.287 11.8709 113.287 11.5309C113.287 11.1909 113.187 10.9009 112.987 10.6609C112.787 10.4009 112.497 10.2709 112.117 10.2709C111.737 10.2709 111.407 10.4109 111.127 10.6909C110.867 10.9509 110.707 11.2209 110.647 11.5009L110.527 11.9209C110.407 12.5409 110.347 13.5809 110.347 15.0409C110.347 16.4809 110.367 17.6209 110.407 18.4609C110.447 19.2809 110.487 19.8509 110.527 20.1709C110.567 20.4709 110.587 20.6509 110.587 20.7109C110.587 21.2109 110.277 21.6109 109.657 21.9109C109.037 22.2309 108.417 22.3909 107.797 22.3909C107.177 22.3909 106.867 22.2609 106.867 22.0009L107.017 21.0709C107.297 19.3309 107.437 17.0609 107.437 14.2609C107.437 11.4609 107.337 9.56086 107.137 8.56086C107.137 8.32086 107.347 8.20086 107.767 8.20086C108.847 8.20086 109.567 8.57086 109.927 9.31086C109.947 9.39086 109.977 9.43086 110.017 9.43086C110.077 9.43086 110.217 9.34086 110.437 9.16086C111.097 8.62086 111.877 8.35086 112.777 8.35086C113.337 8.35086 113.897 8.46086 114.457 8.68086C115.597 9.14086 116.167 10.1009 116.167 11.5609L116.017 13.8409ZM119.709 10.5709C119.189 10.5909 118.809 10.6109 118.569 10.6309C118.349 10.6309 118.239 10.5709 118.239 10.4509C118.239 10.3309 118.299 10.2109 118.419 10.0909C119.699 8.91086 121.859 8.32086 124.899 8.32086C125.939 8.32086 126.759 8.41086 127.359 8.59086L127.659 8.68086C127.899 8.78086 128.019 8.89086 128.019 9.01086C128.019 9.11086 127.949 9.19086 127.809 9.25086C127.269 9.41086 126.749 9.67086 126.249 10.0309C125.749 10.3709 125.499 10.6109 125.499 10.7509L125.679 10.9609C126.319 11.3209 126.809 11.8909 127.149 12.6709C127.509 13.4509 127.709 14.1409 127.749 14.7409L127.809 15.6709C127.809 17.6509 127.259 19.2809 126.159 20.5609C125.059 21.8409 123.559 22.4809 121.659 22.4809C120.699 22.4809 119.869 22.3109 119.169 21.9709C118.469 21.6309 117.949 21.2509 117.609 20.8309C117.289 20.3909 117.029 19.9009 116.829 19.3609C116.589 18.6209 116.469 17.8609 116.469 17.0809C116.469 16.2809 116.599 15.4809 116.859 14.6809C117.139 13.8809 117.449 13.2909 117.789 12.9109C118.149 12.5309 118.549 12.2209 118.989 11.9809C119.549 11.6809 119.999 11.5309 120.339 11.5309C120.679 11.5309 120.849 11.6009 120.849 11.7409L120.669 12.0409C120.229 12.5609 119.909 13.2409 119.709 14.0809C119.529 14.9209 119.439 15.6709 119.439 16.3309C119.439 16.9709 119.519 17.6109 119.679 18.2509C119.839 18.8909 120.019 19.3709 120.219 19.6909C120.419 19.9909 120.649 20.2209 120.909 20.3809C121.289 20.6209 121.689 20.7409 122.109 20.7409C122.529 20.7409 122.939 20.5809 123.339 20.2609C123.739 19.9209 124.029 19.4809 124.209 18.9409C124.569 17.9409 124.749 16.9109 124.749 15.8509C124.749 14.1709 124.319 12.8709 123.459 11.9509C122.619 11.0309 121.369 10.5709 119.709 10.5709ZM139.177 18.4309C139.177 19.5709 138.717 20.5209 137.797 21.2809C136.897 22.0209 135.817 22.3909 134.557 22.3909C132.717 22.3909 131.367 21.8409 130.507 20.7409C129.647 19.6209 129.217 18.1109 129.217 16.2109C129.217 14.1909 129.667 12.4009 130.567 10.8409C131.007 10.0409 131.637 9.41086 132.457 8.95086C133.277 8.49086 134.237 8.26086 135.337 8.26086C136.997 8.26086 138.167 8.82086 138.847 9.94086C139.127 10.4009 139.267 10.9409 139.267 11.5609C139.267 12.5209 138.867 13.2409 138.067 13.7209C137.747 13.9009 137.447 13.9909 137.167 13.9909C136.907 13.9909 136.687 13.9809 136.507 13.9609C136.347 13.9209 136.127 13.7809 135.847 13.5409C135.567 13.3009 135.427 12.9709 135.427 12.5509C135.447 12.3309 135.617 12.1509 135.937 12.0109C136.237 11.8309 136.387 11.5109 136.387 11.0509C136.387 10.2709 135.907 9.88086 134.947 9.88086C134.707 9.88086 134.417 9.99086 134.077 10.2109C133.757 10.4109 133.487 10.6809 133.267 11.0209C133.047 11.3409 132.837 11.8609 132.637 12.5809C132.457 13.2809 132.367 13.9609 132.367 14.6209C132.367 15.2609 132.387 15.7509 132.427 16.0909C132.487 16.4109 132.597 16.8609 132.757 17.4409C132.937 18.0009 133.257 18.4609 133.717 18.8209C134.197 19.1809 134.787 19.3609 135.487 19.3609C136.327 19.3609 137.067 19.0109 137.707 18.3109C137.967 18.0309 138.177 17.6909 138.337 17.2909C138.417 17.1309 138.517 17.0509 138.637 17.0509C138.817 17.0509 138.947 17.2209 139.027 17.5609C139.127 17.8809 139.177 18.1709 139.177 18.4309ZM151.09 8.53086C150.73 10.6909 150.55 13.4409 150.55 16.7809C150.55 19.2409 150.65 20.8609 150.85 21.6409L150.97 22.0309C150.97 22.2909 150.75 22.4209 150.31 22.4209C148.77 22.4209 147.89 21.9909 147.67 21.1309C147.65 21.0309 147.6 20.9809 147.52 20.9809C147.46 20.9809 147.4 21.0209 147.34 21.1009C146.72 21.9209 145.76 22.3309 144.46 22.3309C143.74 22.3309 142.99 22.1509 142.21 21.7909C141.73 21.5709 141.34 21.1909 141.04 20.6509C140.74 20.0909 140.59 19.4109 140.59 18.6109L141.04 12.0409C141.04 10.6609 140.9 9.68086 140.62 9.10086C140.52 8.88086 140.47 8.74086 140.47 8.68086C140.47 8.56086 140.52 8.48086 140.62 8.44086C140.94 8.34086 141.35 8.29086 141.85 8.29086C143.79 8.29086 144.76 9.09086 144.76 10.6909C144.76 11.1909 144.55 12.3309 144.13 14.1109C143.73 15.8909 143.53 17.1609 143.53 17.9209C143.53 18.6609 143.69 19.2309 144.01 19.6309C144.35 20.0309 144.81 20.2309 145.39 20.2309C145.99 20.2309 146.46 20.0209 146.8 19.6009C147.14 19.1809 147.34 18.7609 147.4 18.3409L147.49 17.7109C147.57 17.0109 147.61 15.7809 147.61 14.0209C147.61 12.2609 147.55 11.1509 147.43 10.6909C147.33 10.2109 147.28 9.91086 147.28 9.79086C147.28 9.29086 147.68 8.90086 148.48 8.62086C149.28 8.32086 150 8.17086 150.64 8.17086C150.94 8.17086 151.09 8.29086 151.09 8.53086ZM161.691 13.8409L161.811 14.8909C161.811 15.2709 161.451 15.4609 160.731 15.4609C159.271 15.4609 158.541 14.9109 158.541 13.8109C158.541 13.5509 158.611 13.1909 158.751 12.7309C158.891 12.2709 158.961 11.8709 158.961 11.5309C158.961 11.1909 158.861 10.9009 158.661 10.6609C158.461 10.4009 158.171 10.2709 157.791 10.2709C157.411 10.2709 157.081 10.4109 156.801 10.6909C156.541 10.9509 156.381 11.2209 156.321 11.5009L156.201 11.9209C156.081 12.5409 156.021 13.5809 156.021 15.0409C156.021 16.4809 156.041 17.6209 156.081 18.4609C156.121 19.2809 156.161 19.8509 156.201 20.1709C156.241 20.4709 156.261 20.6509 156.261 20.7109C156.261 21.2109 155.951 21.6109 155.331 21.9109C154.711 22.2309 154.091 22.3909 153.471 22.3909C152.851 22.3909 152.541 22.2609 152.541 22.0009L152.691 21.0709C152.971 19.3309 153.111 17.0609 153.111 14.2609C153.111 11.4609 153.011 9.56086 152.811 8.56086C152.811 8.32086 153.021 8.20086 153.441 8.20086C154.521 8.20086 155.241 8.57086 155.601 9.31086C155.621 9.39086 155.651 9.43086 155.691 9.43086C155.751 9.43086 155.891 9.34086 156.111 9.16086C156.771 8.62086 157.551 8.35086 158.451 8.35086C159.011 8.35086 159.571 8.46086 160.131 8.68086C161.271 9.14086 161.841 10.1009 161.841 11.5609L161.691 13.8409ZM166.055 14.2609L166.085 15.0109C166.085 15.1309 166.165 15.1909 166.325 15.1909C166.965 15.1309 167.525 14.9709 168.005 14.7109C168.485 14.4309 168.845 14.1209 169.085 13.7809C169.565 13.0409 169.825 12.4009 169.865 11.8609L169.895 11.5009C169.895 10.4209 169.465 9.88086 168.605 9.88086C167.965 9.88086 167.445 10.1609 167.045 10.7209C166.385 11.6009 166.055 12.7809 166.055 14.2609ZM172.595 18.2509C172.595 19.0109 172.435 19.6809 172.115 20.2609C171.815 20.8209 171.465 21.2409 171.065 21.5209C170.685 21.7809 170.235 21.9909 169.715 22.1509C169.055 22.3509 168.425 22.4509 167.825 22.4509C166.145 22.4509 164.905 21.8209 164.105 20.5609C163.305 19.3009 162.905 17.7009 162.905 15.7609C162.905 13.8009 163.395 12.0609 164.375 10.5409C165.375 9.02086 166.865 8.26086 168.845 8.26086C170.645 8.26086 171.865 8.89086 172.505 10.1509C172.765 10.6309 172.895 11.0909 172.895 11.5309C172.895 11.9509 172.875 12.2909 172.835 12.5509C172.795 12.7909 172.655 13.1609 172.415 13.6609C172.175 14.1609 171.855 14.6109 171.455 15.0109C171.055 15.4109 170.425 15.7909 169.565 16.1509C168.705 16.5109 167.695 16.7509 166.535 16.8709C166.375 16.8709 166.295 16.9409 166.295 17.0809C166.295 17.2609 166.355 17.5309 166.475 17.8909C166.615 18.2309 166.765 18.5209 166.925 18.7609C167.365 19.3209 168.015 19.6009 168.875 19.6009C169.735 19.6009 170.465 19.3209 171.065 18.7609C171.385 18.4609 171.645 18.0909 171.845 17.6509C171.925 17.4909 172.025 17.4109 172.145 17.4109C172.285 17.4109 172.395 17.5209 172.475 17.7409C172.555 17.9609 172.595 18.1309 172.595 18.2509Z" fill="white"/>
</svg>
