<svg width="94" height="94" viewBox="0 0 94 94" fill="none" xmlns="http://www.w3.org/2000/svg">
<rect x="7" y="7" width="80" height="80" rx="40" fill="#D1FADF"/>
<path d="M63.6673 45.4668V47.0002C63.6653 50.5942 62.5015 54.0913 60.3495 56.9699C58.1976 59.8485 55.1728 61.9543 51.7262 62.9733C48.2797 63.9924 44.5961 63.87 41.2248 62.6245C37.8535 61.379 34.9751 59.077 33.0189 56.062C31.0628 53.0469 30.1336 49.4803 30.3701 45.894C30.6066 42.3078 31.996 38.8941 34.3311 36.162C36.6662 33.4299 39.822 31.5258 43.3276 30.7338C46.8333 29.9417 50.5011 30.3041 53.784 31.7668M63.6673 33.6668L47.0007 50.3502L42.0007 45.3502" stroke="#039855" stroke-width="3.33333" stroke-linecap="round" stroke-linejoin="round"/>
<rect x="7" y="7" width="80" height="80" rx="40" stroke="#ECFDF3" stroke-width="13.3333"/>
</svg>
